<svg xmlns="http://www.w3.org/2000/svg" width="24.584" height="24.5" viewBox="0 0 24.584 24.5">
  <path id="icons8-geography_filled" d="M13.782,2.1c-1.749.348-3.3,2.377-4.281,5.283h4.281Zm1.07,0V7.387h4.281C18.156,4.48,16.6,2.451,14.852,2.1Zm-3.794.386a12.345,12.345,0,0,0-6.877,4.9H8.349A11.955,11.955,0,0,1,11.058,2.489Zm6.518,0a11.951,11.951,0,0,1,2.709,4.9h4.168A12.348,12.348,0,0,0,17.576,2.489ZM3.507,8.48a12.226,12.226,0,0,0-1.482,5.339H7.368A24.258,24.258,0,0,1,8.044,8.48Zm5.666,0a22.727,22.727,0,0,0-.734,5.339h5.343V8.48Zm5.679,0v5.339H20.2a22.755,22.755,0,0,0-.734-5.339Zm5.738,0a24.224,24.224,0,0,1,.675,5.339h5.344A12.218,12.218,0,0,0,25.127,8.48ZM2.025,14.889a12.218,12.218,0,0,0,1.482,5.339H8.044a24.228,24.228,0,0,1-.675-5.339Zm6.414,0a22.755,22.755,0,0,0,.734,5.339h4.609V14.889Zm6.413,0v5.339h4.609a22.723,22.723,0,0,0,.734-5.339Zm6.414,0a24.258,24.258,0,0,1-.676,5.339h4.537a12.226,12.226,0,0,0,1.482-5.339ZM4.181,21.32a12.348,12.348,0,0,0,6.877,4.9,11.951,11.951,0,0,1-2.709-4.9Zm5.32,0c.977,2.907,2.532,4.936,4.281,5.283V21.32Zm5.351,0V26.6c1.749-.348,3.3-2.377,4.281-5.283Zm5.433,0a11.955,11.955,0,0,1-2.709,4.9,12.345,12.345,0,0,0,6.877-4.9Z" transform="translate(-2.025 -2.104)" fill="#fff"/>
</svg>
