<?xml version="1.0" encoding="utf-8"?>
<!-- Generator: Adobe Illustrator 23.0.5, SVG Export Plug-In . SVG Version: 6.00 Build 0)  -->
<svg version="1.1" id="Layer_1" xmlns="http://www.w3.org/2000/svg" xmlns:xlink="http://www.w3.org/1999/xlink" x="0px" y="0px"
	 viewBox="0 0 132.2 108" style="enable-background:new 0 0 132.2 108;" xml:space="preserve">
<style type="text/css">
	.st0{fill:#FAC126;}
</style>
<g id="Icon_metro-chart-bars">
	<path class="st0" d="M132.2,108H0V88.8h132.2V108z M3,105h126.2V91.8H3V105z M116.1,83.8H96.9V56.5h19.2L116.1,83.8z M99.9,80.8
		h13.2l0-21.2H99.9V80.8z M91.8,83.8H72.7V24.2h19.2V83.8z M75.7,80.8h13.2V27.2H75.7V80.8z M43.4,83.8H24.2V0h19.2V83.8z
		 M27.2,80.8h13.2V3H27.2V80.8z M67.6,83.8H48.5V48.5h19.2V83.8z M51.5,80.8h13.2V51.5H51.5V80.8z"/>
</g>
</svg>
