<?xml version="1.0" encoding="utf-8"?>
<!-- Generator: Adobe Illustrator 23.0.5, SVG Export Plug-In . SVG Version: 6.00 Build 0)  -->
<svg version="1.1" id="Layer_1" xmlns="http://www.w3.org/2000/svg" xmlns:xlink="http://www.w3.org/1999/xlink" x="0px" y="0px"
	 viewBox="0 0 72.2 92.6" style="enable-background:new 0 0 72.2 92.6;" xml:space="preserve">
<style type="text/css">
	.st0{fill:#FAC126;}
</style>
<g id="Icon_ionic-md-document">
	<path class="st0" d="M10.5,92.6c-2.8,0-5.5-1.1-7.4-3.1c-2-2-3.1-4.6-3.1-7.4V28.4L28.4,0h33.2c0,0,0,0,0,0c2.8,0,5.5,1.1,7.4,3.1
		s3.1,4.6,3.1,7.4v71.6c0,2.8-1.1,5.5-3.1,7.4c-2,2-4.6,3.1-7.4,3.1H10.5C10.5,92.6,10.5,92.6,10.5,92.6z M4,34.7v47.4
		c0,1.7,0.7,3.4,1.9,4.6c1.2,1.2,2.9,1.9,4.6,1.9c0,0,0,0,0,0h51.1c1.7,0,3.4-0.7,4.6-1.9c1.2-1.2,1.9-2.9,1.9-4.6V10.5
		c0-1.7-0.7-3.4-1.9-4.6C65,4.7,63.4,4,61.7,4c0,0,0,0,0,0h-27v30.7H4z M4,30.1v4.6L34.7,4h-4.6L4,30.1z M13.6,30.7h17v-17
		L13.6,30.7z"/>
</g>
</svg>
