<svg xmlns="http://www.w3.org/2000/svg" width="80.5" height="107" viewBox="0 0 80.5 107">
  <g id="noun_graph_file_1282893" data-name="noun_graph file_1282893" transform="translate(0.5 0.5)">
    <g id="Group_1769" data-name="Group 1769">
      <path id="Path_1675" data-name="Path 1675" d="M23.219,35.739a1.6,1.6,0,0,1-2.319,0l-8.281-7.287a1.644,1.644,0,1,1,2.153-2.484l7.287,6.294,3.809-3.809a1.789,1.789,0,0,1,1.159-.5,1.5,1.5,0,0,1,1.159.5l9.109,10.1h0c.166-.166.331-.331.5-.331l6.459-3.312,4.8-3.313a1.754,1.754,0,0,1,2.153.166l3.975,3.975,7.122-5.631a1.549,1.549,0,0,1,2.153.166l13.25,13.25a1.64,1.64,0,1,1-2.319,2.319L63.134,33.586l-7.122,5.631a1.549,1.549,0,0,1-2.153-.166l-3.975-3.975-3.809,2.484a.162.162,0,0,0-.166.166l-6.294,3.147-.166.166,2.484,2.65,2.153-2.153a1.6,1.6,0,0,1,2.319,0L65.122,58.761l2.153-2.153a1.761,1.761,0,0,1,1.988-.331l8.281,4.969a1.629,1.629,0,0,1,.5,2.319,1.739,1.739,0,0,1-1.491.828,1.241,1.241,0,0,1-.828-.166L68.6,59.92l-2.319,2.319a1.6,1.6,0,0,1-2.319,0L45.247,45.18l-2.153,2.153a1.6,1.6,0,0,1-2.319,0l-3.312-3.644L30.009,52.3a1.881,1.881,0,0,1-1.325.5,1.493,1.493,0,0,1-.828-.166L12.95,44.351a1.705,1.705,0,1,1,1.656-2.981l13.747,7.619,6.791-7.95L27.028,31.93Z" transform="translate(-5.497 16.764)" fill="#fac126" stroke="#fac126" stroke-width="1"/>
      <path id="Path_1676" data-name="Path 1676" d="M22.312,10a1.565,1.565,0,0,1,1.656,1.656,1.565,1.565,0,0,1-1.656,1.656H20.656A1.565,1.565,0,0,1,19,11.656,1.565,1.565,0,0,1,20.656,10Z" transform="translate(37.313 6.563)" fill="#fac126" stroke="#fac126" stroke-width="1"/>
      <path id="Path_1677" data-name="Path 1677" d="M26.312,10a1.565,1.565,0,0,1,1.656,1.656,1.565,1.565,0,0,1-1.656,1.656H24.656A1.565,1.565,0,0,1,23,11.656,1.565,1.565,0,0,1,24.656,10Z" transform="translate(26.688 6.563)" fill="#fac126" stroke="#fac126" stroke-width="1"/>
      <path id="Path_1678" data-name="Path 1678" d="M18.312,13.313H16.656A1.565,1.565,0,0,1,15,11.656,1.565,1.565,0,0,1,16.656,10h1.656a1.565,1.565,0,0,1,1.656,1.656A1.565,1.565,0,0,1,18.312,13.313Z" transform="translate(47.938 6.563)" fill="#fac126" stroke="#fac126" stroke-width="1"/>
      <path id="Path_1679" data-name="Path 1679" d="M41.312,56a1.656,1.656,0,1,1,0,3.313H39.656a1.656,1.656,0,1,1,0-3.312Z" transform="translate(-13.156 36.75)" fill="#fac126" stroke="#fac126" stroke-width="1"/>
      <path id="Path_1680" data-name="Path 1680" d="M45.313,56a1.656,1.656,0,0,1,0,3.313H43.656a1.656,1.656,0,1,1,0-3.312Z" transform="translate(-23.781 36.75)" fill="#fac126" stroke="#fac126" stroke-width="1"/>
      <path id="Path_1681" data-name="Path 1681" d="M18.312,56H49.781a1.656,1.656,0,1,1,0,3.313H16.656a1.656,1.656,0,0,1,0-3.312Z" transform="translate(16.469 36.75)" fill="#fac126" stroke="#fac126" stroke-width="1"/>
      <path id="Path_1682" data-name="Path 1682" d="M85.844,106H9.656A1.565,1.565,0,0,1,8,104.344V84.469a1.565,1.565,0,0,1,1.656-1.656,1.66,1.66,0,0,1,1.656,1.656v18.219H84.188V3.313H27.875V18.219a1.565,1.565,0,0,1-1.656,1.656H11.313v53a1.565,1.565,0,0,1-1.656,1.656A1.66,1.66,0,0,1,8,72.875V18.219a1.5,1.5,0,0,1,.5-1.159L25.059.5A1.5,1.5,0,0,1,26.219,0H85.844A1.565,1.565,0,0,1,87.5,1.656V104.344A1.565,1.565,0,0,1,85.844,106ZM24.563,5.8,13.8,16.563H24.563Z" transform="translate(-8 0)" fill="#fac126" stroke="#fac126" stroke-width="1"/>
      <path id="Path_1683" data-name="Path 1683" d="M55.656,46a1.565,1.565,0,0,1,1.656,1.656v1.656a1.656,1.656,0,1,1-3.312,0V47.656A1.565,1.565,0,0,1,55.656,46Z" transform="translate(-54 30.188)" fill="#fac126" stroke="#fac126" stroke-width="1"/>
      <path id="Path_1684" data-name="Path 1684" d="M15,7.656A1.565,1.565,0,0,1,16.656,6H38.187a1.565,1.565,0,0,1,1.656,1.656,1.565,1.565,0,0,1-1.656,1.656H16.656A1.565,1.565,0,0,1,15,7.656Z" transform="translate(28.063 3.938)" fill="#fac126" stroke="#fac126" stroke-width="1"/>
      <path id="Path_1685" data-name="Path 1685" d="M38.187,17.313H16.656A1.565,1.565,0,0,1,15,15.656,1.565,1.565,0,0,1,16.656,14H38.187a1.565,1.565,0,0,1,1.656,1.656A1.565,1.565,0,0,1,38.187,17.313Z" transform="translate(28.063 9.188)" fill="#fac126" stroke="#fac126" stroke-width="1"/>
    </g>
  </g>
</svg>
