<svg xmlns="http://www.w3.org/2000/svg" width="96.955" height="127.636" viewBox="0 0 96.955 127.636">
  <g id="noun_Initiatives_542405" transform="translate(0 0)">
    <g id="Group_1768" data-name="Group 1768">
      <path id="Path_1674" data-name="Path 1674" d="M55.25,2.988a2.552,2.552,0,0,1,1.774.748l5.412,5.412c2.5,2.4-1.2,6.113-3.608,3.608L57.772,11.7V23.4h-5.1V11.7l-1.056,1.056a2.555,2.555,0,1,1-3.618-3.608l5.422-5.412A2.551,2.551,0,0,1,55.25,2.988ZM87.692,16.443a2.552,2.552,0,0,1,2.442,1.8h-.02l.13,1.8v6.6a2.552,2.552,0,1,1-5.1,0v-1.5l-8.272,8.272L73.26,29.819l8.272-8.272h-1.5a2.552,2.552,0,1,1,0-5.1Zm-57.039,0a2.555,2.555,0,0,1-.259,5.1H28.9l8.272,8.272-3.608,3.608L25.29,25.154v1.5a2.552,2.552,0,1,1-5.1,0V18.995a2.552,2.552,0,0,1,2.551-2.551h7.654A2.55,2.55,0,0,1,30.652,16.443Zm24.568,12A22.964,22.964,0,1,1,32.367,51.407,22.942,22.942,0,0,1,55.22,28.443Zm0,5.1a17.861,17.861,0,1,0,17.741,17.86A17.77,17.77,0,0,0,55.22,33.546Zm40.564,9.937a2.551,2.551,0,0,1,1.754.767l5.412,5.412a2.552,2.552,0,0,1,0,3.608l-5.412,5.412a2.555,2.555,0,0,1-3.618-3.608l1.056-1.056H83.286v-5.1H94.977l-1.056-1.056a2.552,2.552,0,0,1,1.864-4.375Zm-81.06,0a2.552,2.552,0,0,1,1.784,4.375l-1.056,1.056h11.7v5.1h-11.7l1.056,1.056c2.5,2.4-1.2,6.113-3.608,3.608L7.489,53.27a2.552,2.552,0,0,1,0-3.608L12.9,44.25a2.552,2.552,0,0,1,1.824-.767ZM67.15,79.473A30.459,30.459,0,0,1,97.558,110v17.97a2.552,2.552,0,0,1-2.551,2.551H79.19a2.552,2.552,0,0,1-1.425,0h-44.5a2.552,2.552,0,0,1-1.425,0H15.423a2.552,2.552,0,0,1-2.551-2.551V110A30.459,30.459,0,0,1,43.28,79.473Zm0,5.1H62.057l1.874,27.219a2.551,2.551,0,0,1-.807,2.033l-6.159,5.781a2.552,2.552,0,0,1-3.488,0l-6.169-5.781a2.552,2.552,0,0,1-.807-2.033l1.874-27.219H43.28A25.255,25.255,0,0,0,17.974,110v15.419h12.02V112.642a2.552,2.552,0,1,1,5.1,0v12.777H75.921V112.642a2.552,2.552,0,1,1,5.1,0v12.777H92.455V110A25.255,25.255,0,0,0,67.15,84.576Zm-10.206,0H53.486l-1.814,26.352,3.548,3.319,3.538-3.319Z" transform="translate(-6.742 -2.988)" fill="#fac126" fill-rule="evenodd"/>
    </g>
  </g>
</svg>
