<svg xmlns="http://www.w3.org/2000/svg" width="21.583" height="16.617" viewBox="0 0 21.583 16.617">
  <path id="Path_218" data-name="Path 218" d="M24.218,147.8a3.06,3.06,0,0,0-2.845-2.845,86.331,86.331,0,0,0-15.106,0A3.059,3.059,0,0,0,3.422,147.8a33.685,33.685,0,0,0,0,10.264A3.06,3.06,0,0,0,6.267,160.9a86.331,86.331,0,0,0,15.106,0,3.06,3.06,0,0,0,2.845-2.845A33.685,33.685,0,0,0,24.218,147.8Zm-7.23,5.541-5.844,3.522a.532.532,0,0,1-.517.006.5.5,0,0,1-.278-.416v-7.043a.524.524,0,0,1,.777-.409l5.853,3.522a.47.47,0,0,1,.236.409A.462.462,0,0,1,16.989,153.337Z" transform="translate(-3.028 -144.619)" fill="#fff" fill-rule="evenodd"/>
</svg>
